<?xml version="1.0" encoding="utf-8"?>
<!-- Generator: Adobe Illustrator 16.0.0, SVG Export Plug-In . SVG Version: 6.00 Build 0)  -->
<!DOCTYPE svg PUBLIC "-//W3C//DTD SVG 1.1//EN" "http://www.w3.org/Graphics/SVG/1.1/DTD/svg11.dtd">
<svg version="1.1" id="Layer_1" xmlns="http://www.w3.org/2000/svg" xmlns:xlink="http://www.w3.org/1999/xlink" x="0px" y="0px"
	 width="100px" height="100px" viewBox="0 0 100 100" enable-background="new 0 0 100 100" xml:space="preserve">
<g>
	<g opacity="0.3">
		<polygon fill="#48A359" points="100.084,101 0.083,1 50,1 100,51.167 		"/>
	</g>
	<g>
		<polygon fill="#48A359" points="100.084,100 0.083,0 50,0 100,50.167 		"/>
	</g>
</g>
<path fill="#EAEAEA" d="M48.583,22.178l-3.969-3.969c-0.103-0.102-0.268-0.102-0.371,0l-1.941,1.941
	c-0.102,0.101-0.102,0.269,0,0.372l1.549,1.549l-2.411,2.41c0,0-0.465-0.228-1.427-1.19c-1.134-1.135-2.306-3.132,1.18-6.618
	c3.484-3.484,5.594-2.292,7.142-0.746c1.342,1.342,1.683,2.156,1.938,2.636c0.079,0.151,0.301,0.144,0.404,0.04l2.318-1.431
	c0.046-0.048,0.088-0.124,0.072-0.217c-0.045-0.255-0.444-1.676-2.746-3.976c-2.649-2.65-6.495-4.241-11.914,1.179
	c-5.42,5.418-3.117,9.34-0.492,11.961c2.17,2.171,4.417,2.562,4.417,2.562c0.083,0.023,0.165-0.046,0.2-0.081l6.053-6.053
	C48.686,22.445,48.686,22.28,48.583,22.178 M73.857,37.815c0.105-0.101,0.105-0.267,0.003-0.368l-2.234-2.237
	c-0.104-0.101-0.268-0.101-0.371,0.002c-0.002,0-4.318,4.319-4.318,4.319l-3.484-3.485l4.319-4.318c0.101-0.103,0.102-0.268,0-0.371
	l-2.232-2.235c-0.104-0.101-0.27-0.101-0.373,0.002L53.472,40.819c-0.105,0.104-0.105,0.27-0.005,0.372l2.237,2.236
	c0.101,0.101,0.266,0.101,0.371-0.002l5.001-5.003l3.485,3.485c0,0-5.008,4.998-5.01,4.998c-0.101,0.103-0.103,0.268-0.002,0.372
	l2.244,2.24c0.102,0.103,0.265,0.101,0.37-0.003L73.857,37.815 M56.085,23.113c0.801-0.805,0.808-2.101,0.014-2.896
	c-0.795-0.795-2.09-0.79-2.897,0.014c-0.803,0.804-0.808,2.102-0.015,2.897C53.983,23.923,55.282,23.914,56.085,23.113
	 M48.231,30.645c0.299-0.298,5.399-5.398,5.399-5.398c0.103-0.102,0.104-0.268,0.001-0.372l-2.226-2.227
	c-0.104-0.101-0.3-0.089-0.402,0.016c0,0-6.497,6.497-7.736,7.733c-0.227,0.228-0.153,0.437,0.031,0.62c0,0,0.951,0.951,2.007,2.006
	c0.22,0.221,0.382,0.166,0.572-0.023C46.292,32.584,47.916,30.961,48.231,30.645 M78.691,49.972l-2.219-2.218
	c-0.101-0.1-0.266-0.1-0.37,0.003l-5.734,5.733c0,0-0.975-0.151-1.772-0.951c-0.801-0.8-0.653-1.374,0.135-2.159
	c0.783-0.78,4.999-4.999,4.999-4.999c0.105-0.103,0.105-0.269,0.005-0.371l-2.249-2.25c-0.104-0.102-0.271-0.102-0.374,0.001
	c0,0-3.053,3.054-5.378,5.381c-2.328,2.325-1.601,4.19,0.183,5.973c1.464,1.464,3.448,1.835,3.448,1.835s-0.368,0.48-0.393,0.557
	c-0.022,0.077-0.009,0.195,0.062,0.263l1.437,1.429c0.102,0.102,0.269,0.102,0.373-0.005l7.851-7.849
	C78.792,50.24,78.792,50.075,78.691,49.972 M77.554,61.484c-0.749-0.792-0.92-1.665-0.92-1.665l3.704-3.702
	c0,0,0.83,0.201,1.52,0.773c0.869,0.729,1.396,1.738-0.508,3.641C79.338,62.545,78.597,62.595,77.554,61.484z M85.02,55.772
	c-1.263-1.261-2.681-1.557-2.681-1.557l3.959-3.96c0.103-0.103,0.103-0.269,0.004-0.369l-2.241-2.24
	c-0.105-0.102-0.27-0.102-0.373,0L71.992,59.341c-0.103,0.104-0.104,0.271-0.003,0.372l1.556,1.555
	c0.069,0.071,0.159,0.089,0.262,0.062c0.101-0.023,0.634-0.443,0.634-0.443s0.048,1.786,1.781,3.521
	c2.039,2.038,4.237,2.17,7.843-1.436C87.67,59.368,86.276,57.03,85.02,55.772 M60.241,31.482l-1.677-1.676l2.212-2.217
	c0.086-0.085,0.084-0.169-0.017-0.267l-2.285-2.283c-0.091-0.091-0.173-0.1-0.259-0.013l-2.289,2.29c0,0-1.424-0.869-1.521-0.924
	c-0.103-0.054-0.226-0.041-0.31,0.044l-1.439,1.439c-0.104,0.101-0.104,0.268-0.002,0.37l1.171,1.172c0,0-1.505,1.504-3.459,3.459
	c-2.57,2.571-1.021,4.626,0.196,5.843c0.557,0.556,1.399,1.042,1.55,1.113c0.093,0.041,0.198,0.012,0.273-0.063l1.582-1.581
	c0.104-0.102,0.101-0.272,0.002-0.371c-0.101-0.099-0.387-0.31-0.645-0.567c-0.821-0.823-0.719-1.484-0.223-1.982
	c0.495-0.494,3.287-3.288,3.287-3.288l1.679,1.676c0.101,0.102,0.268,0.101,0.372-0.002l1.802-1.801
	C60.342,31.751,60.342,31.588,60.241,31.482"/>
</svg>
