<svg width="1649" height="888" xmlns="http://www.w3.org/2000/svg"><g><path d="M-128,-86L-127,861L-76,279Z" fill="#c27f65" stroke="#c27f65"/><path d="M-128,-86L-76,279L-89,105Z" fill="#c3212c" stroke="#c3212c"/><path d="M-128,-86L-89,105L16,-73Z" fill="#a5002a" stroke="#a5002a"/><path d="M-128,-86L16,-73L215,-69Z" fill="#a10529" stroke="#a10529"/><path d="M-128,-86L215,-69L710,-110Z" fill="#ba2b32" stroke="#ba2b32"/><path d="M-128,-86L710,-110L1375,-130Z" fill="#be6f5b" stroke="#be6f5b"/><path d="M16,-73L-89,105L65,126Z" fill="#c6112a" stroke="#c6112a"/><path d="M16,-73L65,126L193,39Z" fill="#cd182a" stroke="#cd182a"/><path d="M16,-73L193,39L215,-69Z" fill="#c0152a" stroke="#c0152a"/><path d="M215,-69L193,39L318,54Z" fill="#d82931" stroke="#d82931"/><path d="M215,-69L318,54L428,-37Z" fill="#d63537" stroke="#d63537"/><path d="M215,-69L428,-37L526,-85Z" fill="#c9433d" stroke="#c9433d"/><path d="M215,-69L526,-85L710,-110Z" fill="#c45546" stroke="#c45546"/><path d="M428,-37L318,54L472,176Z" fill="#f45a40" stroke="#f45a40"/><path d="M428,-37L472,176L573,75Z" fill="#f96e47" stroke="#f96e47"/><path d="M428,-37L573,75L526,-85Z" fill="#dc5949" stroke="#dc5949"/><path d="M526,-85L573,75L710,-110Z" fill="#d56855" stroke="#d56855"/><path d="M710,-110L573,75L715,119Z" fill="#ea7a5c" stroke="#ea7a5c"/><path d="M710,-110L715,119L828,-99Z" fill="#cd745c" stroke="#cd745c"/><path d="M710,-110L828,-99L1375,-130Z" fill="#946e4d" stroke="#946e4d"/><path d="M828,-99L715,119L882,102Z" fill="#df845c" stroke="#df845c"/><path d="M828,-99L882,102L951,69Z" fill="#ce7b56" stroke="#ce7b56"/><path d="M828,-99L951,69L1011,-17Z" fill="#ba7152" stroke="#ba7152"/><path d="M828,-99L1011,-17L1134,-57Z" fill="#a26d4b" stroke="#a26d4b"/><path d="M828,-99L1134,-57L1375,-130Z" fill="#7f6249" stroke="#7f6249"/><path d="M1011,-17L951,69L1125,21Z" fill="#b6714b" stroke="#b6714b"/><path d="M1011,-17L1125,21L1134,-57Z" fill="#9c644a" stroke="#9c644a"/><path d="M1134,-57L1125,21L1286,38Z" fill="#8f5c47" stroke="#8f5c47"/><path d="M1134,-57L1286,38L1326,-86Z" fill="#755443" stroke="#755443"/><path d="M1134,-57L1326,-86L1375,-130Z" fill="#5c5141" stroke="#5c5141"/><path d="M1326,-86L1286,38L1452,84Z" fill="#714b3c" stroke="#714b3c"/><path d="M1326,-86L1452,84L1375,-130Z" fill="#5c433a" stroke="#5c433a"/><path d="M1375,-130L1452,84L1548,-125Z" fill="#523834" stroke="#523834"/><path d="M1548,-125L1452,84L1552,57Z" fill="#643130" stroke="#643130"/><path d="M1548,-125L1552,57L1687,-70Z" fill="#542429" stroke="#542429"/><path d="M1687,-70L1552,57L1751,127Z" fill="#6f2625" stroke="#6f2625"/><path d="M-89,105L-76,279L58,173Z" fill="#cd453d" stroke="#cd453d"/><path d="M-89,105L58,173L65,126Z" fill="#d43133" stroke="#d43133"/><path d="M65,126L58,173L174,284Z" fill="#e1573f" stroke="#e1573f"/><path d="M65,126L174,284L193,39Z" fill="#e84b36" stroke="#e84b36"/><path d="M193,39L174,284L319,244Z" fill="#f16a43" stroke="#f16a43"/><path d="M193,39L319,244L318,54Z" fill="#f55339" stroke="#f55339"/><path d="M318,54L319,244L472,176Z" fill="#fb7849" stroke="#fb7849"/><path d="M573,75L472,176L673,246Z" fill="#fe9f60" stroke="#fe9f60"/><path d="M573,75L673,246L715,119Z" fill="#ffa467" stroke="#ffa467"/><path d="M715,119L673,246L820,177Z" fill="#f6b66e" stroke="#f6b66e"/><path d="M715,119L820,177L882,102Z" fill="#eea565" stroke="#eea565"/><path d="M882,102L820,177L1006,187Z" fill="#e0ab61" stroke="#e0ab61"/><path d="M882,102L1006,187L951,69Z" fill="#d99957" stroke="#d99957"/><path d="M951,69L1006,187L1125,21Z" fill="#cb884c" stroke="#cb884c"/><path d="M1125,21L1006,187L1099,262Z" fill="#c29e57" stroke="#c29e57"/><path d="M1125,21L1099,262L1286,38Z" fill="#af814b" stroke="#af814b"/><path d="M1286,38L1099,262L1280,283Z" fill="#a3a059" stroke="#a3a059"/><path d="M1286,38L1280,283L1424,205Z" fill="#8c8b4f" stroke="#8c8b4f"/><path d="M1286,38L1424,205L1452,84Z" fill="#87673e" stroke="#87673e"/><path d="M1452,84L1424,205L1602,191Z" fill="#806d40" stroke="#806d40"/><path d="M1452,84L1602,191L1552,57Z" fill="#805233" stroke="#805233"/><path d="M1552,57L1602,191L1751,127Z" fill="#804a2e" stroke="#804a2e"/><path d="M1751,127L1602,191L1693,259Z" fill="#805f38" stroke="#805f38"/><path d="M1751,127L1693,259L1774,316Z" fill="#80693b" stroke="#80693b"/><path d="M-76,279L-127,861L-72,347Z" fill="#b4805a" stroke="#b4805a"/><path d="M-76,279L-72,347L98,360Z" fill="#d0795f" stroke="#d0795f"/><path d="M-76,279L98,360L58,173Z" fill="#d66d4e" stroke="#d66d4e"/><path d="M58,173L98,360L174,284Z" fill="#e3794f" stroke="#e3794f"/><path d="M174,284L98,360L282,340Z" fill="#ed9460" stroke="#ed9460"/><path d="M174,284L282,340L319,244Z" fill="#f3975c" stroke="#f3975c"/><path d="M319,244L282,340L480,338Z" fill="#fbaf6a" stroke="#fbaf6a"/><path d="M319,244L480,338L472,176Z" fill="#fcab61" stroke="#fcab61"/><path d="M472,176L480,338L673,246Z" fill="#fec06e" stroke="#fec06e"/><path d="M673,246L480,338L667,405Z" fill="#ffe18b" stroke="#ffe18b"/><path d="M673,246L667,405L809,335Z" fill="#f8eb91" stroke="#f8eb91"/><path d="M673,246L809,335L820,177Z" fill="#f3d77d" stroke="#f3d77d"/><path d="M820,177L809,335L1006,187Z" fill="#e4cd73" stroke="#e4cd73"/><path d="M1006,187L809,335L962,386Z" fill="#dde380" stroke="#dde380"/><path d="M1006,187L962,386L1099,262Z" fill="#ccd472" stroke="#ccd472"/><path d="M1099,262L962,386L1176,377Z" fill="#c1e182" stroke="#c1e182"/><path d="M1099,262L1176,377L1280,283Z" fill="#acce75" stroke="#acce75"/><path d="M1280,283L1176,377L1327,395Z" fill="#9ad17e" stroke="#9ad17e"/><path d="M1280,283L1327,395L1424,205Z" fill="#8bb868" stroke="#8bb868"/><path d="M1424,205L1327,395L1445,411Z" fill="#86bb70" stroke="#86bb70"/><path d="M1424,205L1445,411L1612,373Z" fill="#80ab67" stroke="#80ab67"/><path d="M1424,205L1612,373L1602,191Z" fill="#808e4f" stroke="#808e4f"/><path d="M1602,191L1612,373L1693,259Z" fill="#80884c" stroke="#80884c"/><path d="M1693,259L1612,373L1774,316Z" fill="#808b53" stroke="#808b53"/><path d="M-72,347L-127,861L-27,470Z" fill="#9f7b51" stroke="#9f7b51"/><path d="M-72,347L-27,470L45,471Z" fill="#d08066" stroke="#d08066"/><path d="M-72,347L45,471L98,360Z" fill="#d68366" stroke="#d68366"/><path d="M98,360L45,471L219,545Z" fill="#e09163" stroke="#e09163"/><path d="M98,360L219,545L282,340Z" fill="#ee9e6a" stroke="#ee9e6a"/><path d="M282,340L219,545L321,419Z" fill="#f5ac70" stroke="#f5ac70"/><path d="M282,340L321,419L480,338Z" fill="#fbbc78" stroke="#fbbc78"/><path d="M321,419L219,545L380,527Z" fill="#e7b267" stroke="#e7b267"/><path d="M321,419L380,527L480,338Z" fill="#fbc37b" stroke="#fbc37b"/><path d="M480,338L380,527L546,522Z" fill="#f8d27d" stroke="#f8d27d"/><path d="M480,338L546,522L667,405Z" fill="#fee18d" stroke="#fee18d"/><path d="M667,405L546,522L629,542Z" fill="#f0e988" stroke="#f0e988"/><path d="M667,405L629,542L836,494Z" fill="#eef291" stroke="#eef291"/><path d="M667,405L836,494L809,335Z" fill="#f2f599" stroke="#f2f599"/><path d="M809,335L836,494L962,386Z" fill="#e5f494" stroke="#e5f494"/><path d="M962,386L836,494L1020,530Z" fill="#d2f087" stroke="#d2f087"/><path d="M962,386L1020,530L1135,466Z" fill="#c4e883" stroke="#c4e883"/><path d="M962,386L1135,466L1176,377Z" fill="#bfe486" stroke="#bfe486"/><path d="M1176,377L1135,466L1313,533Z" fill="#a2d87e" stroke="#a2d87e"/><path d="M1176,377L1313,533L1327,395Z" fill="#98d17e" stroke="#98d17e"/><path d="M1327,395L1313,533L1401,529Z" fill="#7dc870" stroke="#7dc870"/><path d="M1327,395L1401,529L1445,411Z" fill="#87c176" stroke="#87c176"/><path d="M1445,411L1401,529L1516,552Z" fill="#71b865" stroke="#71b865"/><path d="M1445,411L1516,552L1612,373Z" fill="#7fae6b" stroke="#7fae6b"/><path d="M1612,373L1516,552L1775,491Z" fill="#779e5d" stroke="#779e5d"/><path d="M1612,373L1775,491L1774,316Z" fill="#80915d" stroke="#80915d"/><path d="M-27,470L-127,861L-24,667Z" fill="#716649" stroke="#716649"/><path d="M-27,470L-24,667L45,471Z" fill="#b47f52" stroke="#b47f52"/><path d="M45,471L-24,667L36,716Z" fill="#94744e" stroke="#94744e"/><path d="M45,471L36,716L219,545Z" fill="#b18751" stroke="#b18751"/><path d="M219,545L36,716L284,681Z" fill="#9d854d" stroke="#9d854d"/><path d="M219,545L284,681L380,527Z" fill="#c4a75b" stroke="#c4a75b"/><path d="M380,527L284,681L435,635Z" fill="#bbaf61" stroke="#bbaf61"/><path d="M380,527L435,635L546,522Z" fill="#d4ca6b" stroke="#d4ca6b"/><path d="M546,522L435,635L525,734Z" fill="#b7c76c" stroke="#b7c76c"/><path d="M546,522L525,734L629,542Z" fill="#c5d776" stroke="#c5d776"/><path d="M629,542L525,734L728,637Z" fill="#b4d87b" stroke="#b4d87b"/><path d="M629,542L728,637L836,494Z" fill="#cfef84" stroke="#cfef84"/><path d="M836,494L728,637L817,650Z" fill="#b9eb82" stroke="#b9eb82"/><path d="M836,494L817,650L1020,530Z" fill="#baee7d" stroke="#baee7d"/><path d="M1020,530L817,650L988,676Z" fill="#99e175" stroke="#99e175"/><path d="M1020,530L988,676L1155,642Z" fill="#86d96f" stroke="#86d96f"/><path d="M1020,530L1155,642L1135,466Z" fill="#9be171" stroke="#9be171"/><path d="M1135,466L1155,642L1313,533Z" fill="#85d76e" stroke="#85d76e"/><path d="M1313,533L1155,642L1316,634Z" fill="#5fc668" stroke="#5fc668"/><path d="M1313,533L1316,634L1401,529Z" fill="#60c364" stroke="#60c364"/><path d="M1401,529L1316,634L1392,662Z" fill="#4cb760" stroke="#4cb760"/><path d="M1401,529L1392,662L1516,552Z" fill="#52b35c" stroke="#52b35c"/><path d="M1516,552L1392,662L1565,702Z" fill="#34a054" stroke="#34a054"/><path d="M1516,552L1565,702L1753,646Z" fill="#378f4c" stroke="#378f4c"/><path d="M1516,552L1753,646L1775,491Z" fill="#56924a" stroke="#56924a"/><path d="M1775,491L1753,646L1763,794Z" fill="#32773f" stroke="#32773f"/><path d="M-24,667L-127,861L36,716Z" fill="#574f3c" stroke="#574f3c"/><path d="M36,716L-127,861L114,809Z" fill="#554034" stroke="#554034"/><path d="M36,716L114,809L284,681Z" fill="#75683f" stroke="#75683f"/><path d="M284,681L114,809L170,879Z" fill="#705e38" stroke="#705e38"/><path d="M284,681L170,879L337,880Z" fill="#74643a" stroke="#74643a"/><path d="M284,681L337,880L435,635Z" fill="#888f50" stroke="#888f50"/><path d="M435,635L337,880L525,734Z" fill="#879954" stroke="#879954"/><path d="M525,734L337,880L493,862Z" fill="#7e8449" stroke="#7e8449"/><path d="M525,734L493,862L648,776Z" fill="#80a15a" stroke="#80a15a"/><path d="M525,734L648,776L728,637Z" fill="#90c571" stroke="#90c571"/><path d="M728,637L648,776L817,650Z" fill="#94d378" stroke="#94d378"/><path d="M817,650L648,776L807,857Z" fill="#7cbf6d" stroke="#7cbf6d"/><path d="M817,650L807,857L988,676Z" fill="#74ca6e" stroke="#74ca6e"/><path d="M988,676L807,857L972,856Z" fill="#5eb05d" stroke="#5eb05d"/><path d="M988,676L972,856L1185,776Z" fill="#4eaf59" stroke="#4eaf59"/><path d="M988,676L1185,776L1155,642Z" fill="#53c064" stroke="#53c064"/><path d="M1155,642L1185,776L1297,768Z" fill="#34ad5b" stroke="#34ad5b"/><path d="M1155,642L1297,768L1316,634Z" fill="#3bb55f" stroke="#3bb55f"/><path d="M1316,634L1297,768L1392,662Z" fill="#29aa5a" stroke="#29aa5a"/><path d="M1392,662L1297,768L1367,792Z" fill="#169850" stroke="#169850"/><path d="M1392,662L1367,792L1565,702Z" fill="#14924d" stroke="#14924d"/><path d="M1565,702L1367,792L1607,808Z" fill="#077840" stroke="#077840"/><path d="M1565,702L1607,808L1753,646Z" fill="#10753e" stroke="#10753e"/><path d="M1753,646L1607,808L1763,794Z" fill="#0a6234" stroke="#0a6234"/><path d="M-127,861L-89,1017L80,1022Z" fill="#4c0917" stroke="#4c0917"/><path d="M-127,861L80,1022L114,809Z" fill="#562223" stroke="#562223"/><path d="M114,809L80,1022L170,879Z" fill="#652e23" stroke="#652e23"/><path d="M170,879L80,1022L191,942Z" fill="#69241b" stroke="#69241b"/><path d="M170,879L191,942L337,880Z" fill="#724229" stroke="#724229"/><path d="M337,880L191,942L321,988Z" fill="#764027" stroke="#764027"/><path d="M337,880L321,988L493,862Z" fill="#7c5c35" stroke="#7c5c35"/><path d="M493,862L321,988L555,981Z" fill="#7e5f35" stroke="#7e5f35"/><path d="M493,862L555,981L697,920Z" fill="#7f7b48" stroke="#7f7b48"/><path d="M493,862L697,920L648,776Z" fill="#7f9657" stroke="#7f9657"/><path d="M648,776L697,920L807,857Z" fill="#79a05e" stroke="#79a05e"/><path d="M807,857L697,920L827,992Z" fill="#728c51" stroke="#728c51"/><path d="M807,857L827,992L972,856Z" fill="#669250" stroke="#669250"/><path d="M972,856L827,992L1003,1012Z" fill="#5c7d41" stroke="#5c7d41"/><path d="M972,856L1003,1012L1178,962Z" fill="#47773c" stroke="#47773c"/><path d="M972,856L1178,962L1185,776Z" fill="#3c8b48" stroke="#3c8b48"/><path d="M1185,776L1178,962L1297,768Z" fill="#248a48" stroke="#248a48"/><path d="M1297,768L1178,962L1367,792Z" fill="#168144" stroke="#168144"/><path d="M1367,792L1178,962L1219,1010Z" fill="#1c6a38" stroke="#1c6a38"/><path d="M1367,792L1219,1010L1466,918Z" fill="#0b6334" stroke="#0b6334"/><path d="M1367,792L1466,918L1607,808Z" fill="#016636" stroke="#016636"/><path d="M1607,808L1466,918L1557,994Z" fill="#004726" stroke="#004726"/><path d="M1607,808L1557,994L1704,967Z" fill="#00371d" stroke="#00371d"/><path d="M1607,808L1704,967L1763,794Z" fill="#004223" stroke="#004223"/><path d="M80,1022L1219,1010L1003,1012Z" fill="#737546" stroke="#737546"/><path d="M80,1022L1003,1012L827,992Z" fill="#7f6d43" stroke="#7f6d43"/><path d="M80,1022L827,992L555,981Z" fill="#7f5630" stroke="#7f5630"/><path d="M80,1022L555,981L321,988Z" fill="#793521" stroke="#793521"/><path d="M80,1022L321,988L191,942Z" fill="#6f2118" stroke="#6f2118"/><path d="M555,981L827,992L697,920Z" fill="#7c7b4a" stroke="#7c7b4a"/><path d="M1003,1012L1219,1010L1178,962Z" fill="#376132" stroke="#376132"/><path d="M1219,1010L1557,994L1466,918Z" fill="#064424" stroke="#064424"/></g></svg>